<?xml version="1.0" standalone="no"?><!DOCTYPE svg PUBLIC "-//W3C//DTD SVG 1.1//EN" "http://www.w3.org/Graphics/SVG/1.1/DTD/svg11.dtd"><svg t="1611299091764" class="icon" viewBox="0 0 1024 1024" version="1.1" xmlns="http://www.w3.org/2000/svg" p-id="2100" xmlns:xlink="http://www.w3.org/1999/xlink" width="64" height="64"><defs><style type="text/css"></style></defs><path d="M856.47 455.44H543.48V142.46c0-17.38-14.1-31.48-31.48-31.48-17.37 0-31.48 14.1-31.48 31.48v312.98H167.54c-17.38 0-31.48 14.1-31.48 31.48 0 17.37 14.1 31.48 31.48 31.48h312.98v312.99c0 17.41 14.1 31.48 31.48 31.48 17.38 0 31.48-14.07 31.48-31.48V518.4h312.99c17.41 0 31.48-14.1 31.48-31.48 0-17.37-14.08-31.48-31.48-31.48z" p-id="2101"></path></svg>