<?xml version="1.0" standalone="no"?><!DOCTYPE svg PUBLIC "-//W3C//DTD SVG 1.1//EN" "http://www.w3.org/Graphics/SVG/1.1/DTD/svg11.dtd"><svg t="1611299218965" class="icon" viewBox="0 0 1024 1024" version="1.1" xmlns="http://www.w3.org/2000/svg" p-id="3572" xmlns:xlink="http://www.w3.org/1999/xlink" width="64" height="64"><defs><style type="text/css"></style></defs><path d="M789.333333 170.666667l49.493334 185.6-40.96 11.093333c-19.2-37.12-38.826667-74.24-61.44-93.013333C713.813333 256 687.36 256 661.333333 256H554.666667v448c0 21.333333 0 42.666667 14.08 53.333333 14.506667 10.666667 42.666667 10.666667 71.253333 10.666667v42.666667H384v-42.666667c28.586667 0 56.746667 0 71.253333-10.666667 14.08-10.666667 14.08-32 14.08-53.333333V256H362.666667c-26.026667 0-52.48 0-75.093334 18.346667-22.613333 18.773333-42.24 55.893333-61.44 93.013333l-40.96-11.093333L234.666667 170.666667h554.666666z" fill="" p-id="3573"></path></svg>