<?xml version="1.0" standalone="no"?><!DOCTYPE svg PUBLIC "-//W3C//DTD SVG 1.1//EN" "http://www.w3.org/Graphics/SVG/1.1/DTD/svg11.dtd"><svg t="1611299332467" class="icon" viewBox="0 0 1024 1024" version="1.1" xmlns="http://www.w3.org/2000/svg" p-id="5308" xmlns:xlink="http://www.w3.org/1999/xlink" width="64" height="64"><defs><style type="text/css"></style></defs><path d="M426.666667 810.666667h128v128h-128v-128m85.333333-725.333334c228.266667 9.386667 327.68 239.786667 192 412.586667-35.413333 42.666667-92.586667 70.826667-120.746667 106.666667C554.666667 640 554.666667 682.666667 554.666667 725.333333h-128c0-71.253333 0-131.413333 28.586666-174.08 28.16-42.666667 85.333333-67.84 120.746667-96C679.253333 359.68 653.653333 224.426667 512 213.333333a128 128 0 0 0-128 128H256a256 256 0 0 1 256-256z" fill="#e6e6e6" p-id="5309"></path></svg>