<?xml version="1.0" standalone="no"?><!DOCTYPE svg PUBLIC "-//W3C//DTD SVG 1.1//EN" "http://www.w3.org/Graphics/SVG/1.1/DTD/svg11.dtd"><svg t="1611299192044" class="icon" viewBox="0 0 1024 1024" version="1.1" xmlns="http://www.w3.org/2000/svg" p-id="2775" xmlns:xlink="http://www.w3.org/1999/xlink" width="64" height="64"><defs><style type="text/css"></style></defs><path d="M512 128C256 128 25.6 377.6 0 512c25.6 134.4 256 384 512 384s486.4-249.6 512-384c-25.6-134.4-256-384-512-384z m0 704c-192 0-416-211.2-448-320 32-108.8 256-320 448-320s416 211.2 448 320c-32 108.8-256 320-448 320z m0-512c-108.8 0-192 83.2-192 192s83.2 192 192 192 192-83.2 192-192-83.2-192-192-192z m0 320c-70.4 0-128-57.6-128-128s57.6-128 128-128 128 57.6 128 128-57.6 128-128 128z" p-id="2776"></path></svg>